<svg width="26" height="26" viewBox="0 0 26 26" fill="none" xmlns="http://www.w3.org/2000/svg">
<path fill-rule="evenodd" clip-rule="evenodd" d="M1.08333 3.07442C1.08333 2.54633 1.29311 2.03987 1.66653 1.66645C2.03994 1.29304 2.5464 1.08325 3.0745 1.08325H22.9233C23.185 1.08283 23.4443 1.13402 23.6861 1.23391C23.928 1.3338 24.1479 1.48042 24.333 1.66537C24.5182 1.85032 24.665 2.06998 24.7652 2.31177C24.8653 2.55355 24.9168 2.81271 24.9167 3.07442V22.9233C24.9169 23.185 24.8656 23.4443 24.7656 23.6862C24.6656 23.9281 24.5189 24.1479 24.3338 24.333C24.1488 24.5181 23.9291 24.665 23.6872 24.7651C23.4454 24.8653 23.1862 24.9167 22.9244 24.9166H3.0745C2.81292 24.9166 2.55391 24.865 2.31226 24.7649C2.07061 24.6648 1.85106 24.518 1.66614 24.333C1.48123 24.148 1.33459 23.9284 1.23459 23.6867C1.13458 23.445 1.08319 23.1859 1.08333 22.9243V3.07442ZM10.517 10.1703H13.7442V11.7909C14.2101 10.8593 15.4017 10.0208 17.1925 10.0208C20.6256 10.0208 21.4392 11.8765 21.4392 15.2814V21.5886H17.9649V16.0571C17.9649 14.1179 17.4991 13.0238 16.3161 13.0238C14.6748 13.0238 13.9923 14.2035 13.9923 16.0571V21.5886H10.517V10.1703ZM4.55866 21.4402H8.03399V10.0208H4.55866V21.4391V21.4402ZM8.53124 6.29625C8.5378 6.59382 8.48485 6.88969 8.3755 7.16651C8.26616 7.44333 8.10263 7.69553 7.8945 7.90829C7.68637 8.12105 7.43783 8.2901 7.16349 8.40551C6.88914 8.52092 6.5945 8.58037 6.29687 8.58037C5.99924 8.58037 5.7046 8.52092 5.43025 8.40551C5.15591 8.2901 4.90737 8.12105 4.69924 7.90829C4.49111 7.69553 4.32758 7.44333 4.21824 7.16651C4.10889 6.88969 4.05594 6.59382 4.06249 6.29625C4.07536 5.71218 4.31641 5.15636 4.73404 4.74783C5.15166 4.3393 5.71265 4.11054 6.29687 4.11054C6.88109 4.11054 7.44208 4.3393 7.8597 4.74783C8.27733 5.15636 8.51838 5.71218 8.53124 6.29625Z" fill="white"/>
</svg>
