<svg width="18" height="18" viewBox="0 0 18 18" fill="none" xmlns="http://www.w3.org/2000/svg">
<path d="M10.158 7.84209C9.54368 7.22802 8.71062 6.88306 7.84201 6.88306C6.9734 6.88306 6.14034 7.22802 5.52601 7.84209L3.20926 10.1581C2.59492 10.7724 2.24979 11.6057 2.24979 12.4745C2.24979 13.3433 2.59492 14.1765 3.20926 14.7908C3.8236 15.4052 4.65683 15.7503 5.52564 15.7503C6.39444 15.7503 7.22767 15.4052 7.84201 14.7908L9.00001 13.6328" stroke="white" stroke-width="1.5" stroke-linecap="round" stroke-linejoin="round"/>
<path d="M7.84201 10.158C8.45634 10.7721 9.2894 11.117 10.158 11.117C11.0266 11.117 11.8597 10.7721 12.474 10.158L14.7908 7.84198C15.4051 7.22764 15.7502 6.39442 15.7502 5.52561C15.7502 4.6568 15.4051 3.82357 14.7908 3.20923C14.1764 2.59489 13.3432 2.24976 12.4744 2.24976C11.6056 2.24976 10.7724 2.59489 10.158 3.20923L9.00001 4.36723" stroke="white" stroke-width="1.5" stroke-linecap="round" stroke-linejoin="round"/>
</svg>
